<svg xmlns="http://www.w3.org/2000/svg" version="1.1" xmlns:xlink="http://www.w3.org/1999/xlink" xmlns:svgjs="http://svgjs.dev/svgjs" width="1500" height="757" viewBox="0 0 1500 757"><g transform="matrix(1,0,0,1,-0.9090909090907644,-0.9063523447262014)"><svg viewBox="0 0 396 200" data-background-color="#ffd7ea" preserveAspectRatio="xMidYMid meet" height="757" width="1500" xmlns="http://www.w3.org/2000/svg" xmlns:xlink="http://www.w3.org/1999/xlink"><g id="tight-bounds" transform="matrix(1,0,0,1,0.23999999999995225,0.23945900785368224)"><svg viewBox="0 0 395.52 199.52108198429264" height="199.52108198429264" width="395.52"><g><svg viewBox="0 0 395.52 199.52108198429264" height="199.52108198429264" width="395.52"><g transform="matrix(1,0,0,1,0,134.02909316031497)"><svg viewBox="0 0 395.52 65.49198882397766" height="65.49198882397766" width="395.52"><g id="textblocktransform"><svg viewBox="0 0 395.52 65.49198882397766" height="65.49198882397766" width="395.52" id="textblock"><g><svg viewBox="0 0 395.52 65.49198882397766" height="65.49198882397766" width="395.52"><g transform="matrix(1,0,0,1,0,0)"><svg width="395.52" viewBox="3.55 -35.8 273.85586205992803 45.35" height="65.49198882397766" data-palette-color="#f70f03"><path d="M24.7 0L7.5 0Q5.6 0 4.58-1.05 3.55-2.1 3.55-3.95L3.55-3.95 3.55-31.4Q3.55-33.35 4.55-34.35 5.55-35.35 7.45-35.35L7.45-35.35Q9.3-35.35 10.3-34.35 11.3-33.35 11.3-31.4L11.3-31.4 11.3-6.55 24.7-6.55Q26.3-6.55 27.18-5.7 28.05-4.85 28.05-3.3L28.05-3.3Q28.05-1.7 27.18-0.85 26.3 0 24.7 0L24.7 0ZM44.05 0.55L44.05 0.55Q39.7 0.55 36.57-1.03 33.45-2.6 31.77-5.48 30.1-8.35 30.1-12.25L30.1-12.25Q30.1-16.05 31.7-18.93 33.3-21.8 36.17-23.43 39.05-25.05 42.7-25.05L42.7-25.05Q45.35-25.05 47.5-24.18 49.65-23.3 51.2-21.68 52.75-20.05 53.55-17.73 54.35-15.4 54.35-12.55L54.35-12.55Q54.35-11.6 53.75-11.13 53.15-10.65 52-10.65L52-10.65 36.3-10.65 36.3-14.55 48.9-14.55 48.1-13.85Q48.1-15.9 47.5-17.28 46.9-18.65 45.77-19.35 44.65-20.05 43-20.05L43-20.05Q41.15-20.05 39.85-19.2 38.55-18.35 37.85-16.75 37.15-15.15 37.15-12.9L37.15-12.9 37.15-12.5Q37.15-8.7 38.92-6.9 40.7-5.1 44.2-5.1L44.2-5.1Q45.4-5.1 46.95-5.4 48.5-5.7 49.85-6.35L49.85-6.35Q51-6.9 51.9-6.73 52.8-6.55 53.3-5.9 53.8-5.25 53.87-4.4 53.95-3.55 53.5-2.73 53.05-1.9 52-1.35L52-1.35Q50.3-0.4 48.17 0.08 46.05 0.55 44.05 0.55ZM70.55 9.55L70.55 9.55Q67.84 9.55 65.37 9.1 62.9 8.65 61 7.75L61 7.75Q59.85 7.25 59.37 6.45 58.9 5.65 58.97 4.75 59.05 3.85 59.57 3.15 60.1 2.45 60.9 2.18 61.7 1.9 62.6 2.3L62.6 2.3Q64.8 3.3 66.67 3.6 68.55 3.9 69.9 3.9L69.9 3.9Q73.09 3.9 74.7 2.45 76.3 1 76.3-2L76.3-2 76.3-5.8 76.75-5.8Q76-3.5 73.65-2.05 71.3-0.6 68.45-0.6L68.45-0.6Q65.15-0.6 62.7-2.13 60.25-3.65 58.9-6.43 57.55-9.2 57.55-12.85L57.55-12.85Q57.55-15.6 58.32-17.85 59.1-20.1 60.52-21.7 61.95-23.3 63.97-24.18 66-25.05 68.45-25.05L68.45-25.05Q71.4-25.05 73.67-23.63 75.95-22.2 76.7-19.9L76.7-19.9 76.2-18.3 76.2-21.15Q76.2-23 77.17-23.98 78.15-24.95 79.95-24.95L79.95-24.95Q81.75-24.95 82.7-23.98 83.65-23 83.65-21.15L83.65-21.15 83.65-2.85Q83.65 3.3 80.27 6.43 76.9 9.55 70.55 9.55ZM70.7-6.25L70.7-6.25Q72.4-6.25 73.62-7.05 74.84-7.85 75.55-9.33 76.25-10.8 76.25-12.85L76.25-12.85Q76.25-15.95 74.72-17.68 73.2-19.4 70.7-19.4L70.7-19.4Q69-19.4 67.75-18.63 66.5-17.85 65.82-16.38 65.15-14.9 65.15-12.85L65.15-12.85Q65.15-9.75 66.65-8 68.15-6.25 70.7-6.25ZM97.79 0.55L97.79 0.55Q95.09 0.55 92.94-0.5 90.79-1.55 89.59-3.35 88.39-5.15 88.39-7.4L88.39-7.4Q88.39-10.1 89.79-11.68 91.19-13.25 94.34-13.93 97.49-14.6 102.69-14.6L102.69-14.6 105.34-14.6 105.34-10.7 102.74-10.7Q100.19-10.7 98.62-10.43 97.04-10.15 96.37-9.5 95.69-8.85 95.69-7.7L95.69-7.7Q95.69-6.3 96.67-5.4 97.64-4.5 99.49-4.5L99.49-4.5Q100.94-4.5 102.07-5.18 103.19-5.85 103.84-7.03 104.49-8.2 104.49-9.7L104.49-9.7 104.49-15.45Q104.49-17.65 103.49-18.57 102.49-19.5 100.09-19.5L100.09-19.5Q98.74-19.5 97.17-19.18 95.59-18.85 93.69-18.1L93.69-18.1Q92.59-17.6 91.74-17.88 90.89-18.15 90.44-18.88 89.99-19.6 89.99-20.48 89.99-21.35 90.49-22.18 90.99-23 92.14-23.4L92.14-23.4Q94.49-24.35 96.57-24.7 98.64-25.05 100.39-25.05L100.39-25.05Q104.24-25.05 106.72-23.93 109.19-22.8 110.44-20.48 111.69-18.15 111.69-14.5L111.69-14.5 111.69-3.4Q111.69-1.55 110.79-0.55 109.89 0.45 108.19 0.45L108.19 0.45Q106.49 0.45 105.57-0.55 104.64-1.55 104.64-3.4L104.64-3.4 104.64-5.25 104.99-4.95Q104.69-3.25 103.72-2.02 102.74-0.8 101.24-0.13 99.74 0.55 97.79 0.55ZM129.29 0.55L129.29 0.55Q125.29 0.55 122.31-1.03 119.34-2.6 117.74-5.5 116.14-8.4 116.14-12.35L116.14-12.35Q116.14-15.3 117.04-17.65 117.94-20 119.66-21.65 121.39-23.3 123.84-24.18 126.29-25.05 129.29-25.05L129.29-25.05Q130.84-25.05 132.59-24.68 134.34-24.3 136.04-23.4L136.04-23.4Q137.04-22.95 137.41-22.13 137.79-21.3 137.69-20.43 137.59-19.55 137.06-18.88 136.54-18.2 135.74-17.98 134.94-17.75 133.94-18.25L133.94-18.25Q132.99-18.8 131.97-19.05 130.94-19.3 130.04-19.3L130.04-19.3Q128.54-19.3 127.39-18.82 126.24-18.35 125.47-17.48 124.69-16.6 124.27-15.3 123.84-14 123.84-12.3L123.84-12.3Q123.84-9 125.47-7.13 127.09-5.25 130.04-5.25L130.04-5.25Q130.94-5.25 131.94-5.48 132.94-5.7 133.94-6.25L133.94-6.25Q134.94-6.75 135.74-6.5 136.54-6.25 137.01-5.58 137.49-4.9 137.56-4.03 137.64-3.15 137.26-2.33 136.89-1.5 135.94-1.05L135.94-1.05Q134.24-0.2 132.54 0.18 130.84 0.55 129.29 0.55ZM148.44 9.45L148.44 9.45Q147.14 9.45 146.29 8.75 145.44 8.05 145.29 6.93 145.14 5.8 145.69 4.55L145.69 4.55 149.04-2.85 149.04 0.25 140.19-20.05Q139.69-21.35 139.86-22.48 140.04-23.6 140.96-24.28 141.89-24.95 143.54-24.95L143.54-24.95Q144.89-24.95 145.71-24.33 146.54-23.7 147.24-21.95L147.24-21.95 153.14-6.95 151.54-6.95 157.64-22Q158.34-23.7 159.21-24.33 160.09-24.95 161.59-24.95L161.59-24.95Q162.89-24.95 163.66-24.28 164.44-23.6 164.61-22.5 164.79-21.4 164.19-20.1L164.19-20.1 152.44 6.55Q151.69 8.25 150.76 8.85 149.84 9.45 148.44 9.45ZM183.98 0.45L183.98 0.45Q182.58 0.45 181.71-0.2 180.83-0.85 180.61-1.95 180.38-3.05 181.03-4.4L181.03-4.4 193.83-32.45Q194.63-34.15 195.73-34.93 196.83-35.7 198.28-35.7L198.28-35.7Q199.73-35.7 200.83-34.93 201.93-34.15 202.68-32.45L202.68-32.45 215.58-4.4Q216.23-3.05 216.06-1.93 215.88-0.8 215.03-0.18 214.18 0.45 212.83 0.45L212.83 0.45Q211.13 0.45 210.21-0.35 209.28-1.15 208.58-2.85L208.58-2.85 205.58-9.8 208.68-7.65 187.83-7.65 190.93-9.8 187.98-2.85Q187.23-1.1 186.41-0.33 185.58 0.45 183.98 0.45ZM198.28-27L198.18-27 191.78-11.75 190.43-13.7 206.08-13.7 204.73-11.75 198.28-27ZM224.58 0.45L224.58 0.45Q222.68 0.45 221.66-0.6 220.63-1.65 220.63-3.65L220.63-3.65 220.63-31.2Q220.63-33.15 221.68-34.2 222.73-35.25 224.68-35.25L224.68-35.25 241.78-35.25Q243.28-35.25 244.06-34.48 244.83-33.7 244.83-32.25L244.83-32.25Q244.83-30.75 244.06-29.98 243.28-29.2 241.78-29.2L241.78-29.2 228.38-29.2 228.38-20.6 240.68-20.6Q242.18-20.6 242.98-19.83 243.78-19.05 243.78-17.6L243.78-17.6Q243.78-16.15 242.98-15.35 242.18-14.55 240.68-14.55L240.68-14.55 228.38-14.55 228.38-3.65Q228.38 0.45 224.58 0.45ZM265.73 0.55L265.73 0.55Q260.03 0.55 255.98-1.7 251.93-3.95 249.75-8.03 247.58-12.1 247.58-17.65L247.58-17.65Q247.58-21.8 248.8-25.13 250.03-28.45 252.38-30.83 254.73-33.2 258.1-34.5 261.48-35.8 265.73-35.8L265.73-35.8Q268.23-35.8 270.8-35.18 273.38-34.55 275.28-33.4L275.28-33.4Q276.53-32.7 276.98-31.65 277.43-30.6 277.25-29.55 277.08-28.5 276.4-27.75 275.73-27 274.73-26.8 273.73-26.6 272.48-27.25L272.48-27.25Q270.98-28.15 269.33-28.55 267.68-28.95 265.98-28.95L265.98-28.95Q262.63-28.95 260.35-27.63 258.08-26.3 256.93-23.8 255.78-21.3 255.78-17.65L255.78-17.65Q255.78-14.05 256.93-11.5 258.08-8.95 260.35-7.63 262.63-6.3 265.98-6.3L265.98-6.3Q267.58-6.3 269.25-6.7 270.93-7.1 272.48-7.95L272.48-7.95Q273.78-8.6 274.8-8.43 275.83-8.25 276.5-7.53 277.18-6.8 277.35-5.8 277.53-4.8 277.13-3.8 276.73-2.8 275.63-2.1L275.63-2.1Q273.78-0.85 271.08-0.15 268.38 0.55 265.73 0.55Z" opacity="1" transform="matrix(1,0,0,1,0,0)" fill="#f70f03" class="wordmark-text-0" data-fill-palette-color="primary" id="text-0"></path></svg></g></svg></g></svg></g></svg></g><g transform="matrix(1,0,0,1,147.97173895359825,0)"><svg viewBox="0 0 99.57652209280349 118.56800640670563" height="118.56800640670563" width="99.57652209280349"><g><svg xmlns="http://www.w3.org/2000/svg" xmlns:xlink="http://www.w3.org/1999/xlink" xml:space="preserve" version="1.1" style="shape-rendering:geometricPrecision;text-rendering:geometricPrecision;image-rendering:optimizeQuality;" viewBox="5861.06798491947 1256.1079679984998 48279.366158432655 57487.32809376196" x="0" y="0" fill-rule="evenodd" clip-rule="evenodd" height="118.56800640670563" width="99.57652209280349" class="icon-icon-0" data-fill-palette-color="accent" id="icon-0"><g fill="#f70f03" data-fill-palette-color="accent"><path class="" d="M25531 29221C26040 28084 26641 26966 27326 25898 25003 23491 22457 22020 19972 21359 17164 20612 14433 20901 12193 22040 10093 23109 8651 24826 7767 26833 6745 29155 6467 31868 6780 34428 7306 38742 9561 43195 13245 47282 16841 51271 21795 54906 27833 57722 28221 57903 28466 57966 28691 57936 28929 57905 29212 57764 29638 57547 39338 52596 45637 47319 49289 42273 53586 36335 54200 30733 52373 26388 51125 23421 48598 20941 45602 19536 42767 18206 39519 17842 36549 18945 34361 19758 32401 21145 30725 22869 29843 23775 29041 24774 28324 25831 31507 30168 33089 34907 33224 38707 33277 40208 33106 41567 32720 42704 32323 43872 31698 44812 30854 45441 30152 45964 29304 46267 28318 46302H28285C27565 46268 26937 46120 26391 45875 25131 45310 24329 44250 23865 42906 23418 41611 23288 40054 23364 38434 23525 35012 24606 31280 25530 29218zM11790 25775C11919 25596 12169 25556 12348 25686 12527 25815 12567 26065 12437 26244 11215 27932 10383 30365 10244 32866 10122 35071 10540 37320 11709 39142 11828 39328 11774 39574 11589 39694 11403 39813 11157 39759 11037 39574 9771 37600 9316 35182 9447 32823 9594 30171 10484 27581 11790 25776zM48163 24497C48034 24318 48073 24069 48252 23939 48431 23810 48680 23849 48810 24028 50394 26216 51365 29561 51144 32774 50956 35498 49916 38136 47677 39921 47504 40058 47253 40030 47116 39857S47007 39433 47180 39296C49223 37667 50174 35238 50347 32721 50556 29691 49647 26546 48163 24497M22326 45320C23197 45320 23994 45455 24579 45672 25281 45933 25716 46340 25716 46831S25282 47729 24579 47990C23994 48208 23197 48342 22326 48342S20658 48207 20073 47990C19371 47729 18936 47322 18936 46831S19370 45933 20073 45672C20658 45454 21455 45320 22326 45320M24301 46419C23804 46234 23106 46120 22326 46120 21545 46120 20848 46234 20351 46419 19971 46560 19736 46709 19736 46831 19736 46954 19971 47102 20351 47243 20848 47428 21546 47542 22326 47542 23107 47542 23804 47428 24301 47243 24681 47102 24916 46953 24916 46831 24916 46708 24681 46560 24301 46419M34185 45320C35056 45320 35853 45455 36438 45672 37140 45933 37575 46340 37575 46831S37141 47729 36438 47990C35853 48208 35056 48342 34185 48342S32517 48207 31932 47990C31230 47729 30795 47322 30795 46831S31229 45933 31932 45672C32517 45454 33314 45320 34185 45320M36160 46419C35663 46234 34965 46120 34185 46120 33404 46120 32707 46234 32210 46419 31830 46560 31595 46709 31595 46831 31595 46954 31830 47102 32210 47243 32707 47428 33405 47542 34185 47542 34966 47542 35663 47428 36160 47243 36540 47102 36775 46953 36775 46831 36775 46708 36540 46560 36160 46419M43255 12860H44260C44398 12860 44510 12972 44510 13110V14115C44510 14253 44398 14365 44260 14365H43255C43117 14365 43005 14253 43005 14115V13110C43005 12972 43117 12860 43255 12860M44010 13360H43505V13865H44010zM14785 16114H15790C15928 16114 16040 16226 16040 16364V17369C16040 17507 15928 17619 15790 17619H14785C14647 17619 14535 17507 14535 17369V16364C14535 16226 14647 16114 14785 16114M15540 16614H15035V17119H15540zM35483 10483C35473 10464 35464 10444 35457 10423 34762 8792 34599 7028 35309 5365 35313 5355 35318 5345 35323 5335 35778 4469 36358 3731 37017 3131 38079 2165 39351 1556 40654 1342 41965 1127 43305 1312 44495 1938 45102 2257 45668 2690 46169 3241 46182 3255 46193 3270 46204 3285 47352 4758 48135 6617 48367 8636 48580 10487 48330 12474 47474 14420 46654 16286 45084 16929 43307 16730 42436 16632 41517 16327 40620 15863 39733 15403 38864 14787 38082 14061 36987 13044 36059 11809 35482 10484zM35885 9253C36739 7736 38151 6562 39761 5864 41657 5043 43835 4880 45703 5595L45756 5616C46222 5799 46663 6073 47053 6482 46698 5485 46194 4568 45575 3775 45138 3296 44648 2921 44123 2645 43092 2103 41926 1943 40782 2130 39630 2319 38502 2861 37555 3722 36965 4258 36447 4917 36038 5692 35548 6848 35548 8071 35885 9253M47640 9907C47477 8782 47177 7984 46790 7421 46417 6878 45958 6553 45466 6360L45419 6342C43749 5702 41790 5853 40077 6595 38398 7322 36961 8615 36268 10287 36802 11461 37642 12561 38627 13476 39357 14153 40164 14727 40987 15153 41800 15574 42624 15850 43396 15936 44829 16097 46092 15586 46744 14101 47360 12699 47638 11276 47641 9906zM25848 18438C25762 18330 25780 18173 25888 18087S26153 18019 26239 18127C26331 18243 26433 18345 26543 18434 26865 18694 27253 18838 27647 18847 28040 18856 28441 18731 28790 18454 28906 18362 29016 18253 29118 18126 29204 18019 29361 18002 29469 18088 29576 18174 29593 18331 29507 18439 29381 18595 29244 18730 29101 18845 28657 19198 28144 19358 27638 19346 27133 19334 26638 19152 26232 18823 26093 18711 25965 18582 25850 18438zM27590 10951C28888 10951 30060 11560 30905 12545 31736 13513 32250 14846 32250 16314S31736 19115 30905 20083C30060 21068 28888 21677 27590 21677S25120 21068 24275 20083C23444 19115 22930 17782 22930 16314S23444 13513 24275 12545C25120 11560 26292 10951 27590 10951M30299 13064C29603 12253 28645 11751 27590 11751S25577 12253 24881 13064C24170 13892 23730 15041 23730 16314S24170 18736 24881 19564C25577 20375 26535 20877 27590 20877S29603 20375 30299 19564C31010 18736 31450 17587 31450 16314S31010 13892 30299 13064M11514 16586C11675 16813 11849 17036 12038 17255 12282 17538 12551 17813 12845 18078 13850 18983 14985 18938 16020 18324 16584 17989 17122 17492 17600 16887 18086 16272 18510 15547 18838 14770 19458 13297 19730 11642 19418 10201 18888 9315 18148 9459 17427 9978 16539 10616 15663 11760 15106 12525 14012 14027 12848 15407 11578 16530L11513 16587zM11435 17777C11245 17557 11066 17329 10900 17097 9803 17960 8626 18627 7350 19019 7217 19060 7092 19051 6976 18994 6697 18859 6599 18455 6650 17865 6687 17432 6791 16843 6947 16160 7604 13275 9208 8662 10558 7220 11528 6184 12895 5672 14358 5689 15783 5706 17301 6225 18623 7250 18639 7261 18654 7273 18668 7286 19465 8019 19948 8939 20180 9943 20184 9957 20187 9971 20190 9986 20552 11610 20261 13450 19575 15079 19220 15921 18759 16709 18228 17381 17689 18063 17077 18627 16429 19012 15096 19802 13627 19854 12314 18672 11999 18389 11707 18089 11438 17777zM18841 8740C18648 8428 18413 8139 18131 7880 16951 6965 15606 6502 14350 6487 13104 6472 11947 6899 11137 7764 9884 9103 8358 13540 7722 16335 7576 16975 7479 17527 7444 17930 7434 18048 7391 18125 7355 18177 8688 17722 9911 16937 11050 15931 12274 14849 13401 13512 14463 12054 15052 11245 15982 10034 16962 9329 17595 8874 18242 8613 18841 8738zM27778 25218C28491 24184 29285 23206 30153 22314 31907 20511 33965 19057 36271 18200 39455 17017 42923 17400 45939 18816 49107 20302 51782 22931 53107 26081 55038 30672 54416 36555 49936 42744 46215 47885 39822 53248 30001 58262 29504 58516 29170 58680 28792 58729 28400 58780 28030 58698 27497 58449 21361 55587 16319 51885 12653 47818 8859 43609 6535 39004 5988 34527 5659 31834 5956 28973 7038 26513 7992 24345 9553 22489 11832 21329 14242 20102 17172 19790 20176 20588 22752 21273 25381 22775 27779 25219zM27858 26548C27252 27515 26718 28523 26259 29546 25364 31543 24317 35158 24162 38475 24090 40003 24208 41460 24619 42650 25013 43791 25680 44686 26717 45150 27170 45353 27698 45477 28309 45507 29118 45475 29810 45227 30380 44802 31088 44274 31619 43466 31965 42449 32321 41401 32478 40139 32428 38736 32300 35150 30824 30682 27858 26547z" fill="#f70f03" fill-rule="nonzero" data-fill-palette-color="accent"></path></g></svg></g></svg></g><g></g></svg></g><defs></defs></svg><rect width="395.52" height="199.52108198429264" fill="none" stroke="none" visibility="hidden"></rect></g></svg></g></svg>